#!OML:ASF H:\Male1\Project 1\Capture day 1\Session 1\Male1.ASF
:FULLY-SPECIFIED
:DEGREES
227
root 23.2969 16.0652 5.46623 181.148 12.6919 -178.832
lowerback 14.0129 0.0570331 -13.825
upperback 3.28798 -0.788271 -9.01738
thorax -4.13874 0.366072 -1.8085
lowerneck -6.22297 10.8015 10.5165
upperneck -3.07842 14.573 4.06464
head 0.450556 7.55315 -0.0335386
rclavicle 2.78299e-014 -1.145e-013
rhumerus -50.6991 39.4194 -70.7159
rradius 90.4724
rwrist -39.2138
rhand -26.8234 5.12538
rfingers 7.12502
rthumb -0.249534 -24.8542
lclavicle 2.78299e-014 -1.145e-013
lhumerus 9.09435 -28.7627 26.8938
lradius 78.2624
lwrist 12.2206
lhand -27.2302 14.2176
lfingers 7.12502
lthumb -0.642399 44.1964
rfemur -12.3165 -6.5222 38.5955
rtibia 39.0245
rfoot 1.86698 -15.6279
rtoes -21.504
lfemur -8.92964 -21.9318 -6.35516
ltibia 38.2166
lfoot -21.2109 36.1012
ltoes 35.0683
228
root 23.7328 16.32 5.45211 181.12 11.874 -176.752
lowerback 13.6364 -0.12233 -11.86
upperback 3.7094 -0.74534 -8.44539
thorax -3.54194 0.274868 -2.23064
lowerneck -6.12008 10.9844 10.3264
upperneck -3.27836 14.8069 3.65706
head 0.397162 7.64388 -0.130733
rclavicle -7.95139e-016 1.39944e-013
rhumerus -56.3185 36.8542 -71.7786
rradius 90.1199
rwrist -39.8099
rhand -27.2679 4.10909
rfingers 7.12502
rthumb -0.678793 -25.8696
lclavicle -7.95139e-016 1.39944e-013
lhumerus 7.09194 -26.6433 25.3965
lradius 79.3531
lwrist 11.8972
lhand -27.59 13.7045
lfingers 7.12502
lthumb -0.989882 43.682
rfemur -11.2005 -7.11978 39.8462
rtibia 37.6937
rfoot 4.41666 -12.1346
rtoes -26.8421
lfemur -9.47952 -18.5913 -5.60036
ltibia 40.4628
lfoot -17.4036 31.0982
ltoes 29.1488
229
root 24.1463 16.541 5.46582 180.271 11.6271 -176.463
lowerback 13.9132 0.00878892 -11.3531
upperback 4.18203 -0.468673 -8.20451
thorax -3.20655 0.390445 -2.28597
lowerneck -5.94677 11.1729 10.2215
upperneck -3.52406 15.0454 3.07207
head 0.340542 7.73227 -0.29761
rclavicle -7.95139e-016 -1.59028e-014
rhumerus -60.5378 33.9791 -72.8871
rradius 88.2915
rwrist -40.2583
rhand -29.0313 3.04386
rfingers 7.12502
rthumb -2.38194 -26.9226
lclavicle -7.95139e-016 -1.59028e-014
lhumerus 4.85502 -24.2506 24.7026
lradius 80.1375
lwrist 11.8571
lhand -28.0927 13.4986
lfingers 7.12502
lthumb -1.4754 43.4733
rfemur -10.2243 -6.66075 38.9613
rtibia 37.7642
rfoot 7.91113 -4.01475
rtoes -44.7951
lfemur -9.17686 -15.9659 -7.30199
ltibia 42.5459
lfoot -14.2034 26.5897
ltoes 19.8088
230
root 24.5486 16.7321 5.47488 180.017 11.4997 -175.944
lowerback 13.6579 0.115418 -10.2186
upperback 4.52924 -0.137592 -7.8211
thorax -2.73616 0.50388 -2.53169
lowerneck -5.83073 11.2551 9.95672
upperneck -3.61362 15.1219 2.5152
head 0.326142 7.74407 -0.430788
rclavicle -1.19271e-014 -1.59028e-014
rhumerus -64.6736 31.2988 -74.0854
rradius 86.2788
rwrist -41.1783
rhand -31.3274 1.92079
rfingers 7.12502
rthumb -4.59925 -28.0093
lclavicle -1.19271e-014 -1.59028e-014
lhumerus 2.18438 -21.4577 24.9489
lradius 80.5402
lwrist 11.5415
lhand -28.2979 12.9342
lfingers 7.12502
lthumb -1.67359 42.9074
rfemur -10.201 -5.69167 38.2253
rtibia 38.978
rfoot 6.64691 -0.156736
rtoes -27.4932
lfemur -9.23692 -13.6827 -8.71812
ltibia 44.3462
lfoot -11.9757 22.2489
ltoes 12.056
231
root 24.9317 16.8787 5.49076 179.598 12.2474 -176.299
lowerback 13.4521 0.575163 -9.75972
upperback 4.82281 0.594313 -7.5569
thorax -2.33888 0.842853 -2.60203
lowerneck -5.90742 11.2618 9.4607
upperneck -3.644 15.0614 1.80527
head 0.354817 7.68537 -0.56729
rclavicle 3.26007e-014 5.40694e-014
rhumerus -67.7842 29.003 -75.1111
rradius 83.8645
rwrist -42.0559
rhand -32.9985 1.01374
rfingers 7.12502
rthumb -6.21275 -28.8752
lclavicle 3.26007e-014 5.40694e-014
lhumerus -0.795002 -18.339 25.8039
lradius 80.7038
lwrist 11.1403
lhand -28.1185 11.9287
lfingers 7.12502
lthumb -1.50033 41.9032
rfemur -10.5185 -3.96295 36.4056
rtibia 41.02
rfoot 5.29674 -2.8772
rtoes -25.6143
lfemur -8.80774 -11.8828 -11.2616
ltibia 45.1989
lfoot -11.6154 18.6045
ltoes 3.28275
232
root 25.3011 17.001 5.51008 179.393 13.0976 -176.615
lowerback 13.4029 0.86794 -9.3021
upperback 4.98644 1.036 -7.26506
thorax -2.15767 1.03824 -2.60311
lowerneck -6.35149 11.5921 9.22031
upperneck -3.41575 15.4196 1.44398
head 0.525745 7.86398 -0.586135
rclavicle -1.82882e-014 8.90555e-014
rhumerus -69.6849 27.1755 -76.224
rradius 80.4201
rwrist -41.8562
rhand -32.7392 0.525176
rfingers 7.12502
rthumb -5.96242 -29.3709
lclavicle -1.82882e-014 8.90555e-014
lhumerus -4.37902 -15.1667 26.3023
lradius 80.8697
lwrist 11.3848
lhand -28.2623 11.3424
lfingers 7.12502
lthumb -1.6392 41.3159
rfemur -11.3677 -2.57318 34.3476
rtibia 43.3845
rfoot 2.86799 -6.77113
rtoes -37.8258
lfemur -8.3008 -10.8859 -13.7848
ltibia 45.0756
lfoot -11.4266 14.6952
ltoes -0.813163
233
root 25.6704 17.0626 5.52372 179.455 13.6517 -175.445
lowerback 13.5787 1.06834 -7.32533
upperback 5.1219 1.41791 -6.51814
thorax -2.13432 1.17423 -2.96079
lowerneck -6.13695 11.5556 9.73925
upperneck -3.49015 15.2239 -0.301229
head 0.662728 7.70622 -1.20452
rclavicle -2.54444e-014 -5.725e-014
rhumerus -71.521 25.6046 -77.7059
rradius 76.6748
rwrist -39.7906
rhand -32.4845 -0.0224969
rfingers 7.12502
rthumb -5.71648 -29.9254
lclavicle -2.54444e-014 -5.725e-014
lhumerus -7.78051 -12.9184 26.5597
lradius 80.9659
lwrist 12.2864
lhand -29.5905 11.8818
lfingers 7.12502
lthumb -2.92204 41.8415
rfemur -11.9939 -1.57856 33.5411
rtibia 45.2462
rfoot 0.18599 -11.501
rtoes -35.9049
lfemur -7.75769 -10.4172 -14.6883
ltibia 44.4266
lfoot -10.6914 10.1295
ltoes -6.90786
234
root 26.0489 17.1168 5.52025 179.539 13.8822 -175.274
lowerback 13.4545 1.2625 -6.29268
upperback 5.26249 1.76827 -5.96003
thorax -1.9271 1.31482 -2.98604
lowerneck -6.10922 11.4807 10.0567
upperneck -3.52751 15.0225 -1.62759
head 0.785963 7.56838 -1.66874
rclavicle 2.46493e-014 -9.22361e-014
rhumerus -73.5408 24.2101 -79.4549
rradius 74.0437
rwrist -40.5067
rhand -33.0876 -0.924538
rfingers 7.12502
rthumb -6.29879 -30.8109
lclavicle 2.46493e-014 -9.22361e-014
lhumerus -11.1572 -10.1628 27.4366
lradius 80.5376
lwrist 12.1095
lhand -30.6147 12.2692
lfingers 7.12502
lthumb -3.91103 42.2131
rfemur -12.9314 -0.43463 31.4636
rtibia 46.6612
rfoot -1.95255 -16.3436
rtoes -35.429
lfemur -7.39368 -10.1307 -16.5352
ltibia 43.0893
lfoot -9.71291 4.89864
ltoes -12.5394
235
root 26.4268 17.1012 5.51351 179.658 14.0323 -175.022
lowerback 13.3597 1.40189 -5.28711
upperback 5.30491 2.01012 -5.2858
thorax -1.84005 1.39656 -2.86384
lowerneck -5.90696 11.4588 10.4198
upperneck -3.45058 14.9157 -2.89628
head 0.920023 7.48216 -2.13409
rclavicle -1.35174e-014 1.90833e-014
rhumerus -75.5845 23.1926 -81.3176
rradius 71.5429
rwrist -40.8833
rhand -33.5116 -0.419283
rfingers 7.12502
rthumb -6.70813 -30.293
lclavicle -1.35174e-014 1.90833e-014
lhumerus -14.8196 -7.6908 28.2111
lradius 79.9371
lwrist 12.1272
lhand -30.9263 11.383
lfingers 7.12502
lthumb -4.21198 41.3211
rfemur -13.6395 0.610261 29.3997
rtibia 47.0089
rfoot -6.7071 -21.9417
rtoes -20.8413
lfemur -7.25277 -9.56773 -18.1909
ltibia 41.8551
lfoot -8.52038 -1.30914
ltoes -13.47
236
root 26.8045 17.0377 5.49946 179.657 13.7757 -174.849
lowerback 13.2324 1.32595 -4.34502
upperback 5.40459 1.97928 -4.60521
thorax -1.67599 1.34953 -2.65981
lowerneck -5.8657 11.5839 10.7009
upperneck -3.00545 15.0141 -3.70028
head 1.16637 7.51365 -2.41237
rclavicle 6.36111e-014 -2.38542e-014
rhumerus -77.1888 22.4718 -83.2851
rradius 69.5361
rwrist -41.4067
rhand -33.9587 -1.36471
rfingers 7.12502
rthumb -7.13967 -31.2243
lclavicle 6.36111e-014 -2.38542e-014
lhumerus -18.4134 -5.66003 28.8271
lradius 78.9577
lwrist 12.7544
lhand -31.2153 10.7837
lfingers 7.12502
lthumb -4.49102 40.7161
rfemur -13.9919 1.1124 27.1146
rtibia 46.7536
rfoot -11.5624 -26.5419
rtoes -1.88735
lfemur -6.96974 -8.81324 -19.8673
ltibia 40.4341
lfoot -6.57537 -6.11766
ltoes -17.1222
237
root 27.1956 16.9202 5.48423 179.427 13.7323 -174.29
lowerback 13.314 1.33091 -3.35125
upperback 5.52253 2.05623 -3.73918
thorax -1.60734 1.35945 -2.31855
lowerneck -5.70878 11.5302 11.1996
upperneck -2.31743 14.8576 -5.1005
head 1.53601 7.40201 -2.94114
rclavicle 1.43125e-014 3.02153e-014
rhumerus -79.3572 22.2444 -85.6589
rradius 68.6364
rwrist -41.642
rhand -34.1972 -1.43194
rfingers 7.12502
rthumb -7.36991 -31.2836
lclavicle 1.43125e-014 3.02153e-014
lhumerus -22.334 -4.24257 29.2424
lradius 78.2893
lwrist 13.599
lhand -32.2791 12.8601
lfingers 7.12502
lthumb -5.51822 42.7683
rfemur -13.6981 2.68786 25.4289
rtibia 45.8079
rfoot -15.7548 -30.6594
rtoes 11.3566
lfemur -6.4438 -7.70898 -20.9892
ltibia 39.3323
lfoot -3.74694 -10.9744
ltoes -12.5059
238
root 27.5886 16.7567 5.46614 179.016 13.8225 -174.105
lowerback 13.3827 1.29334 -2.67441
upperback 5.73162 2.08896 -3.1466
thorax -1.43084 1.36872 -2.07997
lowerneck -6.22708 11.5096 10.873
upperneck -1.30812 14.7737 -5.00266
head 1.92204 7.3572 -2.79935
rclavicle -2.42517e-014 -4.77083e-014
rhumerus -80.6568 21.4986 -87.6369
rradius 68.0453
rwrist -41.1897
rhand -33.0935 -1.87029
rfingers 7.12502
rthumb -6.30449 -31.7565
lclavicle -2.42517e-014 -4.77083e-014
lhumerus -26.1888 -2.2576 29.8422
lradius 77.6185
lwrist 13.7185
lhand -31.402 12.7345
lfingers 7.12502
lthumb -4.67136 42.663
rfemur -13.0773 5.10919 23.4619
rtibia 44.4873
rfoot -19.2727 -34.5113
rtoes 12.107
lfemur -5.78448 -6.40767 -22.378
ltibia 38.5048
lfoot -2.60503 -11.3174
ltoes -19.5774
239
root 27.9789 16.5541 5.45218 178.896 13.6626 -174.539
lowerback 13.0684 1.2211 -2.87068
upperback 5.78962 1.96337 -2.60301
thorax -1.22975 1.28052 -1.37059
lowerneck -6.29511 11.3849 10.7737
upperneck -0.665012 14.5929 -5.40023
head 2.16846 7.25408 -2.90473
rclavicle -2.38542e-014 -3.65764e-014
rhumerus -81.222 20.628 -88.934
rradius 67.1819
rwrist -41.1803
rhand -31.8934 -0.82688
rfingers 7.12502
rthumb -5.14578 -30.7444
lclavicle -2.38542e-014 -3.65764e-014
lhumerus -29.9448 0.0229569 30.7892
lradius 76.8108
lwrist 13.5001
lhand -31.5989 12.6183
lfingers 7.12502
lthumb -4.86143 42.5426
rfemur -12.9878 6.87818 20.6789
rtibia 43.1389
rfoot -20.803 -34.6993
rtoes 10.5329
lfemur -5.67988 -6.0006 -24.0978
ltibia 37.8396
lfoot 0.481583 -11.2497
ltoes -12.4094
240
root 28.3937 16.3235 5.43517 178.943 13.3306 -173.583
lowerback 12.7254 1.20791 -1.73533
upperback 5.9606 2.08148 -1.82903
thorax -0.866428 1.33377 -1.20164
lowerneck -6.65584 11.0152 9.90425
upperneck -0.110756 14.114 -4.71912
head 2.24227 7.02417 -2.5394
rclavicle 1.19271e-015 3.81667e-014
rhumerus -82.066 19.3141 -90.447
rradius 67.3376
rwrist -42.0775
rhand -31.8308 -0.736106
rfingers 7.12502
rthumb -5.08531 -30.6551
lclavicle 1.19271e-015 3.81667e-014
lhumerus -32.8507 0.404451 32.1187
lradius 76.2575
lwrist 14.5118
lhand -33.5569 14.7682
lfingers 7.12502
lthumb -6.75181 44.6406
rfemur -12.4925 7.5091 19.4067
rtibia 41.4797
rfoot -19.5897 -34.2917
rtoes 11.4956
lfemur -5.89264 -5.60885 -24.0363
ltibia 38.286
lfoot 2.69982 -10.6484
ltoes -6.7856
241
root 28.806 16.0511 5.43732 178.771 12.8778 -173.185
lowerback 12.7656 1.11426 -1.53238
upperback 6.04893 1.98422 -1.15547
thorax -0.816422 1.27567 -0.602612
lowerneck -6.97093 10.4462 9.41013
upperneck 0.771723 13.3519 -4.7885
head 2.50879 6.63215 -2.49874
rclavicle -1.07344e-014 -4.29375e-014
rhumerus -82.171 18.1159 -91.6038
rradius 67.097
rwrist -42.4839
rhand -31.9714 -0.776067
rfingers 7.12502
rthumb -5.2211 -30.6917
lclavicle -1.07344e-014 -4.29375e-014
lhumerus -35.8101 1.69707 33.615
lradius 75.8713
lwrist 15.7141
lhand -32.8777 14.3762
lfingers 7.12502
lthumb -6.09612 44.2685
rfemur -11.8467 9.47082 17.9308
rtibia 40.0435
rfoot -20.4794 -34.0658
rtoes 11.9009
lfemur -6.64223 -5.50997 -24.4005
ltibia 39.9344
lfoot 4.7444 -9.13652
ltoes 2.51633
